<svg version="1.1" id="Layer_1" xmlns="http://www.w3.org/2000/svg" xmlns:xlink="http://www.w3.org/1999/xlink" x="0px" y="0px"
	 width="100%" viewBox="0 0 96 96" enable-background="new 0 0 96 96" xml:space="preserve">
<path fill="#EFEBE9" opacity="1.000000" stroke="none" 
	d="
M17.027905,15.164708 
	C25.339172,15.776333 33.667210,16.232237 41.948318,17.123926 
	C43.718403,17.314526 45.318207,19.086489 47.012413,20.979885 
	C47.028374,38.226974 47.028374,54.624119 47.028374,70.302505 
	C36.811653,69.162689 26.909056,68.057922 17.003994,66.488731 
	C17.010323,49.071106 17.019112,32.117908 17.027905,15.164708 
z"/>
<path fill="#EFEBE9" opacity="1.000000" stroke="none" 
	d="
M50.917007,20.878912 
	C51.897335,16.479769 55.983482,16.523298 58.944874,16.166367 
	C65.925095,15.325055 73.008934,15.343381 80.519798,15.547439 
	C80.990379,33.039326 80.992012,49.997742 80.554398,66.971359 
	C70.524635,67.987427 60.934116,68.988297 50.917007,70.033691 
	C50.917007,54.313629 50.917007,37.596272 50.917007,20.878912 
z"/>
<path fill="#D32F2F" opacity="1.000000" stroke="none" 
	d="
M83.999664,20.843817 
	C86.136772,20.954369 88.273888,21.064922 90.700790,21.190466 
	C90.700790,40.374336 90.700790,59.411312 90.700790,79.000137 
	C80.779572,79.000137 71.012230,78.892944 61.251102,79.091301 
	C59.317398,79.130592 57.115479,79.945755 55.547722,81.097794 
	C52.324081,83.466667 46.330238,83.598625 42.705112,81.475578 
	C40.506279,80.187828 37.801487,79.183739 35.292633,79.109299 
	C26.031218,78.834496 16.756735,79.000061 7.276435,79.000061 
	C7.276435,59.438465 7.276435,40.397903 7.276435,20.998667 
	C9.352506,20.998667 11.154571,20.998667 13.439661,21.416265 
	C13.615220,23.258213 13.042864,24.682219 13.041010,26.106966 
	C13.021142,41.387081 13.091393,56.667309 13.318012,72.331833 
	C23.337820,72.863495 33.176563,73.010849 43.029087,73.522148 
	C44.932476,75.587227 46.628452,78.362770 48.755554,78.746117 
	C52.238483,79.373810 54.368546,76.689621 55.448509,73.099182 
	C64.071190,73.026733 72.228157,73.065010 80.383041,72.952629 
	C81.879898,72.931992 83.368324,72.299583 84.915924,71.486763 
	C84.647354,54.297249 84.323509,37.570534 83.999664,20.843817 
z"/>
<path fill="#BCAAA4" opacity="1.000000" stroke="none" 
	d="
M43.015305,73.158195 
	C33.176563,73.010849 23.337820,72.863495 13.595388,72.180115 
	C14.796618,70.080437 15.901539,68.516800 17.006458,66.953156 
	C26.909056,68.057922 36.811653,69.162689 47.028374,70.302505 
	C47.028374,54.624119 47.028374,38.226974 47.055664,21.354303 
	C48.106827,20.913902 49.130692,20.949028 50.535782,20.931534 
	C50.917007,37.596272 50.917007,54.313629 50.917007,70.033691 
	C60.934116,68.988297 70.524635,67.987427 80.699020,67.262390 
	C82.475464,69.008667 83.668053,70.479111 84.860641,71.949562 
	C83.368324,72.299583 81.879898,72.931992 80.383041,72.952629 
	C72.228157,73.065010 64.071190,73.026733 54.991783,73.032730 
	C50.384186,73.069504 46.699745,73.113846 43.015305,73.158195 
z"/>
<path fill="#D7CCC8" opacity="1.000000" stroke="none" 
	d="
M17.003994,66.488731 
	C15.901539,68.516800 14.796618,70.080437 13.414323,71.795792 
	C13.091393,56.667309 13.021142,41.387081 13.041010,26.106966 
	C13.042864,24.682219 13.615220,23.258213 13.879014,21.413908 
	C14.661682,19.071550 15.488022,17.149149 16.671131,15.195727 
	C17.019112,32.117908 17.010323,49.071106 17.003994,66.488731 
z"/>
<path fill="#D7CCC8" opacity="1.000000" stroke="none" 
	d="
M84.915924,71.486763 
	C83.668053,70.479111 82.475464,69.008667 81.138260,67.247192 
	C80.992012,49.997742 80.990379,33.039326 80.980553,15.622822 
	C81.893120,16.844051 82.813873,18.523367 83.867142,20.523251 
	C84.323509,37.570534 84.647354,54.297249 84.915924,71.486763 
z"/>
<path fill="#4F0909" opacity="1.000000" stroke="none" 
	d="
M43.029087,73.522148 
	C46.699745,73.113846 50.384186,73.069504 54.525352,73.091614 
	C54.368546,76.689621 52.238483,79.373810 48.755554,78.746117 
	C46.628452,78.362770 44.932476,75.587227 43.029087,73.522148 
z"/>
</svg>