<?xml version="1.0" encoding="UTF-8" standalone="no" ?>
<!DOCTYPE svg PUBLIC "-//W3C//DTD SVG 1.1//EN" "http://www.w3.org/Graphics/SVG/1.1/DTD/svg11.dtd">
<svg xmlns="http://www.w3.org/2000/svg" xmlns:xlink="http://www.w3.org/1999/xlink" version="1.1" width="640" height="360" viewBox="-0.14 -1 640 360" xml:space="preserve">
<desc>Created with Fabric.js 5.2.4</desc>
<defs>
</defs>
<rect x="0" y="0" width="100%" height="100%" fill="transparent"></rect>
<g transform="matrix(Infinity NaN NaN Infinity 0 0)" id="0cd39976-b960-43c6-8fe1-4fcda132fdf8"  >
</g>
<g transform="matrix(1 0 0 1 320 180)" id="717b5c0a-f6d3-427f-9a59-4ec9944d94ce"  >
<rect style="stroke: none; stroke-width: 1; stroke-dasharray: none; stroke-linecap: butt; stroke-dashoffset: 0; stroke-linejoin: miter; stroke-miterlimit: 4; fill: rgb(26,42,86); fill-rule: nonzero; opacity: 1;" vector-effect="non-scaling-stroke"  x="-320" y="-180" rx="0" ry="0" width="640" height="360" />
</g>
<g transform="matrix(0.33 0 0 0.33 320 160.54)"  >
<g style="" vector-effect="non-scaling-stroke"   >
		<g transform="matrix(1 0 0 1 0 175.69)"  >
<path style="stroke: none; stroke-width: 1; stroke-dasharray: none; stroke-linecap: butt; stroke-dashoffset: 0; stroke-linejoin: miter; stroke-miterlimit: 4; fill: rgb(103,232,249); fill-rule: nonzero; opacity: 1;" vector-effect="non-scaling-stroke"  transform=" translate(-485.9, -706.71)" d="M 657.4 580.96 C 636.6 558.37 609.41 542.0500000000001 575.8199999999999 532.0400000000001 C 574.8 531.7300000000001 573.77 531.44 572.7199999999999 531.1500000000001 C 540.1199999999999 522.1300000000001 495.94999999999993 522.1400000000001 461.19999999999993 522.1400000000001 L 271.67999999999995 522.1400000000001 L 271.67999999999995 891.2800000000001 L 479.28999999999996 891.2800000000001 C 525.12 891.2800000000001 564.5699999999999 883.8000000000001 597.5999999999999 868.84 C 630.6399999999999 853.9 655.9799999999999 832.32 673.6399999999999 804.13 C 691.2999999999998 775.95 700.1299999999999 742.06 700.1299999999999 702.47 C 700.1299999999999 652.37 685.8899999999999 611.85 657.3999999999999 580.96 Z M 435.09999999999997 756.3900000000001 C 432.77 756.3900000000001 431.32 753.8600000000001 432.47999999999996 751.8400000000001 L 444.60999999999996 730.7400000000001 L 449.65999999999997 721.9500000000002 C 436.13 717.7900000000002 426.29999999999995 705.1600000000002 426.29999999999995 690.2100000000002 C 426.29999999999995 670.6200000000001 443.21 654.9900000000001 463.17999999999995 657.2300000000001 C 478.15999999999997 658.9100000000001 490.34 670.9900000000001 492.16999999999996 686.0100000000001 C 494.21 702.7400000000001 483.84 717.4000000000001 469.06999999999994 721.94 L 474.11999999999995 730.73 L 486.24999999999994 751.83 C 487.40999999999997 753.85 485.9599999999999 756.38 483.62999999999994 756.38 L 435.0899999999999 756.38 Z" stroke-linecap="round" />
</g>
		<g transform="matrix(1 0 0 1 -14.29 -20.52)" clip-path="url(#CLIPPATH_7)"  >
<clipPath id="CLIPPATH_7" >
	<path transform="matrix(1 0 0 1 25.9 -152.86) translate(-497.51, -357.64)" d="M 335.27 522.15 C 318.31 522.15 297.37 522.15 270.34 522.15 C 248.27999999999997 522.15 210.28999999999996 405.58 210.28999999999996 405.58 L 253.87999999999997 215.95999999999998 L 305.09999999999997 103.71999999999998 C 305.09999999999997 103.71999999999998 447.51 116.79999999999998 458.03999999999996 117.88999999999999 C 468.56999999999994 118.97999999999999 636.39 180.01 642.93 182.19 C 649.4699999999999 184.37 782.42 286.81 784.5999999999999 292.25 C 786.7799999999999 297.7 759.54 463.14 758.4499999999999 465.96000000000004 C 757.3599999999999 468.7800000000001 657.0999999999999 552.7 657.0999999999999 552.7 L 544.8599999999999 611.5500000000001 L 356.8799999999999 586.4900000000001 L 339.9899999999999 530.3700000000001 L 388.4799999999999 491.6900000000001 L 385.7599999999999 465.98000000000013 L 366.1399999999999 496.0500000000001 L 335.27999999999986 522.1700000000001 Z" stroke-linecap="round" />
</clipPath>
<path style="stroke: none; stroke-width: 1; stroke-dasharray: none; stroke-linecap: butt; stroke-dashoffset: 0; stroke-linejoin: miter; stroke-miterlimit: 4; fill: rgb(202,254,255); fill-rule: nonzero; opacity: 1;" vector-effect="non-scaling-stroke"  transform=" translate(-471.61, -510.5)" d="M 308.6 850.23 L 298.55 850.23 C 283.76 850.23 271.76 838.24 271.76 823.44 L 271.76 197.55 C 271.76 182.76000000000002 283.75 170.76000000000002 298.55 170.76000000000002 L 450.9 170.76000000000002 C 496.09999999999997 170.76000000000002 535.16 178.58 568.0899999999999 194.20000000000002 C 601.0199999999999 209.83 626.4799999999999 232.15000000000003 644.4799999999999 261.17 C 662.4699999999999 290.19 671.4699999999999 325.07 671.4699999999999 365.81 C 671.4699999999999 406.55 662.4699999999999 441.78 644.4799999999999 472.33 C 626.4799999999999 502.88 601.0199999999999 526.6 568.0899999999999 543.48 C 535.16 560.37 496.0999999999999 568.8000000000001 450.8999999999999 568.8000000000001 L 373.4799999999999 568.8000000000001 C 358.6899999999999 568.8000000000001 346.6899999999999 556.8100000000001 346.6899999999999 542.0100000000001 L 346.6899999999999 542.0100000000001 C 346.6899999999999 527.2200000000001 358.6799999999999 515.2200000000001 373.4799999999999 515.2200000000001 L 435.8299999999999 515.2200000000001 C 470.42999999999995 515.2200000000001 500.4899999999999 509.22000000000014 526.02 497.22000000000014 C 551.55 485.23000000000013 571.29 468.13000000000017 585.25 445.95000000000016 C 599.2 423.77000000000015 606.18 397.6100000000001 606.18 367.47000000000014 C 606.18 337.33000000000015 599.1999999999999 310.6200000000001 585.25 288.9900000000001 C 571.29 267.3700000000001 551.56 250.90000000000012 526.02 239.60000000000014 C 500.49 228.30000000000013 470.41999999999996 222.65000000000015 435.83 222.65000000000015 L 362.16999999999996 222.65000000000015 C 347.37999999999994 222.65000000000015 335.37999999999994 234.64000000000016 335.37999999999994 249.44000000000014 L 335.37999999999994 823.45 C 335.37999999999994 838.24 323.38999999999993 850.24 308.5899999999999 850.24 Z" stroke-linecap="round" />
</g>
</g>
</g>
</svg>